<svg width="151" height="45" xmlns="http://www.w3.org/2000/svg" xmlns:xlink="http://www.w3.org/1999/xlink" overflow="hidden"><defs><clipPath id="clip0"><rect x="0" y="0" width="151" height="45"/></clipPath></defs><g clip-path="url(#clip0)"><path d="M25.0357 11.6791 25.0239 23.7391C25.0239 24.08 25.2052 24.395 25.5 24.5661L28.8065 26.4783C29.2636 26.7427 29.8484 26.5864 30.1128 26.1293 30.1967 25.9844 30.2409 25.8201 30.2413 25.6526L30.2413 15.0874C30.2417 12.7423 28.3898 10.8155 26.0465 10.723L26.023 10.723C25.4967 10.7043 25.055 11.1157 25.0363 11.642 25.0358 11.6544 25.0357 11.6668 25.0357 11.6791Z" fill="#00CB4A" transform="scale(1.00492 1)"/><path d="M12.0874 27.6287 22.5339 21.6104C22.8288 21.4398 23.011 21.1255 23.0126 20.7848L23.0204 16.9617C23.0228 16.4344 22.5972 16.0051 22.0698 16.0028 21.8999 16.002 21.7327 16.0467 21.5857 16.1322L12.437 21.4096C10.4051 22.5811 9.66258 25.1491 10.7557 27.2243L10.7661 27.2452C11.0114 27.712 11.5886 27.8915 12.0554 27.6463 12.0662 27.6406 12.0768 27.6348 12.0874 27.6287Z" fill="#00CB4A" transform="scale(1.00492 1)"/><path d="M32.3765 30.883 21.9417 24.8452C21.6468 24.6743 21.2832 24.6743 20.9883 24.8452L17.6739 26.7496C17.2169 27.0125 17.0594 27.5962 17.3224 28.0533 17.4065 28.1995 17.5278 28.3207 17.6739 28.4048L26.8187 33.69C28.8493 34.8639 31.4447 34.2235 32.6961 32.2396L32.7091 32.22C32.9902 31.7738 32.8563 31.1843 32.4102 30.9033 32.3991 30.8963 32.3879 30.8896 32.3765 30.883Z" fill="#00CB4A" transform="scale(1.00492 1)"/><path d="M41.6439 16.8326 45.2348 16.8326 46.6239 24.9978 48.5048 16.8326 52.1478 16.8326 53.9739 24.93 55.363 16.8326 58.9565 16.8326 56.0257 28.7765 51.943 28.7765 50.2996 21.4578 48.6222 28.7765 44.5396 28.7765Z" fill="#2A3246" transform="scale(1.00492 1)"/><path d="M60.0939 16.6957C60.0939 15.7291 60.8557 14.9674 62.0413 14.9674 63.227 14.9674 63.973 15.7291 63.973 16.6957 63.973 17.6622 63.2113 18.3913 62.0413 18.3913 60.8713 18.3913 60.0939 17.6452 60.0939 16.6957ZM60.3639 19.2704 63.6848 19.2704 63.6848 28.7752 60.3639 28.7752Z" fill="#2A3246" transform="scale(1.00492 1)"/><path d="M72.0548 23.6765C72.0548 22.5757 71.4443 21.9313 70.4961 21.9313 69.5126 21.9313 68.9035 22.5757 68.9035 23.6765L68.9035 28.7765 65.5826 28.7765 65.5826 19.2717 68.9035 19.2717 68.9035 20.627C69.4617 19.8143 70.4687 19.1922 71.8004 19.1922 74.0035 19.1922 75.3756 20.7574 75.3756 23.2357L75.3756 28.7765 72.0548 28.7765Z" fill="#2A3246" transform="scale(1.00492 1)"/><path d="M80.7287 19.153C81.9822 19.153 82.9657 19.7126 83.49 20.5761L83.49 16.2391 86.8278 16.2391 86.8278 28.7765 83.49 28.7765 83.49 27.4552C82.9996 28.3017 82.0552 28.89 80.7117 28.89 78.4591 28.89 76.6683 27.043 76.6683 24.0104 76.6683 20.9778 78.4591 19.153 80.7287 19.153ZM81.7826 22.05C80.8343 22.05 80.0557 22.7283 80.0557 24.0157 80.0557 25.303 80.8383 25.9983 81.7826 25.9983 82.727 25.9983 83.5109 25.303 83.5109 24.0157 83.5109 22.7283 82.7113 22.05 81.7826 22.05Z" fill="#2A3246" transform="scale(1.00492 1)"/><path d="M92.7744 28.8952C90.1317 28.8952 88.3696 27.4722 88.2339 25.5743L91.453 25.5743C91.5378 26.2017 92.0635 26.5396 92.7574 26.5396 93.317 26.5396 93.6391 26.2683 93.6391 25.9304 93.6391 24.5413 88.59 25.6696 88.59 22.1857 88.59 20.5252 89.9622 19.153 92.537 19.153 95.1117 19.153 96.4852 20.5878 96.7109 22.4739L93.7109 22.4739C93.6091 21.8804 93.1891 21.5257 92.473 21.5257 91.9317 21.5257 91.6435 21.7448 91.6435 22.1009 91.6435 23.4561 96.7096 22.3722 96.7304 25.9813 96.7226 27.6417 95.2317 28.8952 92.7744 28.8952Z" fill="#2A3246" transform="scale(1.00492 1)"/><path d="M102.618 19.153C105.023 19.153 106.792 20.5252 107.26 22.9148L103.739 22.9148C103.552 22.3383 103.179 21.9822 102.553 21.9822 101.739 21.9822 101.198 22.6604 101.198 24.0157 101.198 25.3709 101.739 26.0661 102.553 26.0661 103.179 26.0661 103.552 25.727 103.739 25.1335L107.26 25.1335C106.786 27.4891 105.023 28.8952 102.618 28.8952 99.7891 28.8952 97.8065 27.0483 97.8065 24.0157 97.8065 20.983 99.7891 19.153 102.618 19.153Z" fill="#2A3246" transform="scale(1.00492 1)"/><path d="M113.054 28.8952C110.225 28.8952 108.09 27.0483 108.09 24.0157 108.09 20.983 110.242 19.153 113.071 19.153 115.9 19.153 118.053 21 118.053 24.0157 118.053 27.0313 115.883 28.8952 113.054 28.8952ZM113.054 26.0152C113.901 26.0152 114.681 25.3878 114.681 24.0157 114.681 22.6435 113.918 22.033 113.071 22.033 112.225 22.033 111.479 22.6604 111.479 24.0157 111.479 25.3709 112.191 26.0152 113.054 26.0152Z" fill="#2A3246" transform="scale(1.00492 1)"/><path d="M125.507 19.153C127.777 19.153 129.55 20.9791 129.55 24.0157 129.55 27.0522 127.771 28.8952 125.507 28.8952 124.169 28.8952 123.236 28.2848 122.729 27.4604L122.729 33.3222 119.408 33.3222 119.408 19.2717 122.729 19.2717 122.729 20.593C123.219 19.7465 124.186 19.153 125.507 19.153ZM124.456 22.05C123.524 22.05 122.729 22.7452 122.729 24.0157 122.729 25.2861 123.524 25.9983 124.456 25.9983 125.387 25.9983 126.184 25.2861 126.184 24.0157 126.184 22.7452 125.388 22.05 124.456 22.05Z" fill="#2A3246" transform="scale(1.00492 1)"/><path d="M135.214 28.8952C132.402 28.8952 130.388 27.0483 130.388 24.0157 130.388 20.983 132.369 19.153 135.214 19.153 138.027 19.153 140.009 20.9661 140.009 23.9139 140.009 24.1756 139.992 24.4371 139.958 24.6965L133.672 24.6965C133.74 25.7974 134.333 26.2383 135.078 26.2383 135.59 26.2585 136.062 25.962 136.265 25.4922L139.805 25.4922C139.366 27.4383 137.587 28.8952 135.214 28.8952ZM133.696 23.087 136.627 23.087C136.627 22.2391 135.967 21.7826 135.203 21.7826 134.401 21.7826 133.842 22.2196 133.696 23.087Z" fill="#2A3246" transform="scale(1.00492 1)"/></g></svg>