<svg id="Layer_1" data-name="Layer 1" xmlns="http://www.w3.org/2000/svg" viewBox="0 0 482.84 500.24"><defs><style>.cls-1{fill:#2a3246;}</style></defs><path class="cls-1" d="M270.28,92l-.17,176.2a13.94,13.94,0,0,0,6.95,12.09l48.34,28a14,14,0,0,0,21-12.07l.08-154.39A63.81,63.81,0,0,0,285.12,78h-.34A14,14,0,0,0,270.28,92Z"/><path class="cls-1" d="M81,325.07l152.68-88a13.94,13.94,0,0,0,7-12.07l.12-55.87a14,14,0,0,0-20.94-12.12L86.14,234.18a63.81,63.81,0,0,0-24.59,85l.16.3A14,14,0,0,0,81,325.07Z"/><path class="cls-1" d="M377.58,372.64,225.06,284.39a13.94,13.94,0,0,0-13.94,0l-48.45,27.84a14,14,0,0,0,0,24.19l133.67,77.26a63.81,63.81,0,0,0,85.9-21.2l.19-.29A14,14,0,0,0,377.58,372.64Z"/></svg>