<svg id="Layer_1" data-name="Layer 1" xmlns="http://www.w3.org/2000/svg" viewBox="0 0 1152 345"><defs><style>.cls-1{fill:#00cb4a;}.cls-2{fill:#2a3246;}</style></defs><path class="cls-1" d="M191.94,89.54,191.85,182a7.33,7.33,0,0,0,3.65,6.34L220.85,203a7.33,7.33,0,0,0,11-6.33l0-81a33.48,33.48,0,0,0-32.16-33.46h-.18A7.31,7.31,0,0,0,191.94,89.54Z"/><path class="cls-1" d="M92.67,211.82l80.09-46.14a7.35,7.35,0,0,0,3.67-6.33l.06-29.31a7.32,7.32,0,0,0-11-6.36L95.35,164.14a33.46,33.46,0,0,0-12.89,44.58l.08.16A7.32,7.32,0,0,0,92.67,211.82Z"/><path class="cls-1" d="M248.22,236.77l-80-46.29a7.29,7.29,0,0,0-7.31,0l-25.41,14.6a7.32,7.32,0,0,0,0,12.69l70.11,40.52a33.47,33.47,0,0,0,45.06-11.12l.1-.15A7.32,7.32,0,0,0,248.22,236.77Z"/><path class="cls-2" d="M319.27,129.05H346.8l10.65,62.6,14.42-62.6H399.8l14,62.08,10.65-62.08H452l-22.47,91.57h-31.3l-12.6-56.11-12.86,56.11h-31.3Z"/><path class="cls-2" d="M460.72,128c0-7.41,5.84-13.25,14.93-13.25s14.81,5.84,14.81,13.25-5.84,13-14.81,13S460.72,135.28,460.72,128Zm2.07,19.74h25.46v72.87H462.79Z"/><path class="cls-2" d="M552.42,181.52c0-8.44-4.68-13.38-11.95-13.38-7.54,0-12.21,4.94-12.21,13.38v39.1H502.8V147.75h25.46v10.39c4.28-6.23,12-11,22.21-11,16.89,0,27.41,12,27.41,31v42.48H552.42Z"/><path class="cls-2" d="M618.92,146.84c9.61,0,17.15,4.29,21.17,10.91V124.5h25.59v96.12H640.09V210.49c-3.76,6.49-11,11-21.3,11-17.27,0-31-14.16-31-37.41S601.52,146.84,618.92,146.84ZM627,169.05c-7.27,0-13.24,5.2-13.24,15.07s6,15.2,13.24,15.2,13.25-5.33,13.25-15.2S634.12,169.05,627,169.05Z"/><path class="cls-2" d="M711.27,221.53c-20.26,0-33.77-10.91-34.81-25.46h24.68c.65,4.81,4.68,7.4,10,7.4,4.29,0,6.76-2.08,6.76-4.67,0-10.65-38.71-2-38.71-28.71,0-12.73,10.52-23.25,30.26-23.25s30.27,11,32,25.46h-23c-.78-4.55-4-7.27-9.49-7.27-4.15,0-6.36,1.68-6.36,4.41,0,10.39,38.84,2.08,39,29.75C741.54,211.92,730.11,221.53,711.27,221.53Z"/><path class="cls-2" d="M786.74,146.84c18.44,0,32,10.52,35.59,28.84h-27c-1.43-4.42-4.29-7.15-9.09-7.15-6.24,0-10.39,5.2-10.39,15.59s4.15,15.72,10.39,15.72c4.8,0,7.66-2.6,9.09-7.15h27c-3.64,18.06-17.15,28.84-35.59,28.84-21.69,0-36.89-14.16-36.89-37.41S765.05,146.84,786.74,146.84Z"/><path class="cls-2" d="M866.75,221.53c-21.69,0-38.06-14.16-38.06-37.41s16.5-37.28,38.19-37.28,38.19,14.16,38.19,37.28S888.44,221.53,866.75,221.53Zm0-22.08c6.49,0,12.47-4.81,12.47-15.33s-5.85-15.2-12.34-15.2-12.21,4.81-12.21,15.2S860.13,199.45,866.75,199.45Z"/><path class="cls-2" d="M962.22,146.84c17.4,0,31,14,31,37.28s-13.64,37.41-31,37.41c-10.26,0-17.41-4.68-21.3-11v44.94H915.46V147.75h25.46v10.13C944.68,151.39,952.09,146.84,962.22,146.84Zm-8.06,22.21c-7.14,0-13.24,5.33-13.24,15.07s6.1,15.2,13.24,15.2,13.25-5.46,13.25-15.2S961.31,169.05,954.16,169.05Z"/><path class="cls-2" d="M1036.64,221.53c-21.56,0-37-14.16-37-37.41s15.19-37.28,37-37.28c21.57,0,36.76,13.9,36.76,36.5a46.19,46.19,0,0,1-.39,6h-48.19c.52,8.44,5.07,11.82,10.78,11.82a9.51,9.51,0,0,0,9.1-5.72h27.14C1068.47,210.36,1054.83,221.53,1036.64,221.53ZM1025,177h22.47c0-6.5-5.06-10-10.91-10C1030.41,167,1026.12,170.35,1025,177Z"/></svg>